<svg>

	<symbol id="icon-1" width="61" height="61" viewBox="0 0 61 61" fill="none" xmlns="http://www.w3.org/2000/svg">
		<path d="M30.9166 0.120117C14.4167 0.120117 0.916672 13.6442 0.916672 30.3008C0.916672 45.3611 11.8967 57.8611 26.2366 60.1201V39.0358H18.6166V30.3008H26.2366V23.6442C26.2366 16.084 30.7066 11.9273 37.5766 11.9273C40.8466 11.9273 44.2666 12.4996 44.2666 12.4996V19.9394H40.4866C36.7666 19.9394 35.5966 22.2587 35.5966 24.6382V30.3008H43.9366L42.5866 39.0358H35.5966V60.1201C42.6659 58.9992 49.1032 55.3777 53.7464 49.9095C58.3895 44.4412 60.9326 37.4865 60.9166 30.3008C60.9166 13.6442 47.4166 0.120117 30.9166 0.120117Z" fill="#7C7C7C" />
	</symbol>

	<symbol id="icon-2" width="60" height="60" viewBox="0 0 60 60" fill="none" xmlns="http://www.w3.org/2000/svg">
		<path d="M30 0C13.432 0 0 13.4314 0 30C0 46.5686 13.432 60 30 60C46.568 60 60 46.5686 60 30C60 13.4314 46.568 0 30 0ZM45.2176 33.2446C46.6159 34.6103 48.0951 35.8957 49.3504 37.4026C49.9065 38.0692 50.4307 38.7585 50.8297 39.5337C51.3993 40.6392 50.8849 41.8515 49.8954 41.9171L43.7494 41.9159C42.162 42.0473 40.8988 41.4071 39.8339 40.3218C38.9837 39.457 38.195 38.5332 37.3762 37.6389C37.0416 37.2718 36.6893 36.9262 36.2695 36.6543C35.4316 36.1093 34.7036 36.2762 34.2236 37.1515C33.7344 38.0421 33.6227 39.0292 33.5761 40.0205C33.5092 41.4697 33.0721 41.8484 31.618 41.9165C28.5109 42.062 25.5628 41.5906 22.8227 40.0241C20.4055 38.6425 18.5346 36.6924 16.9043 34.4845C13.7297 30.1805 11.2984 25.4566 9.11386 20.597C8.6222 19.5026 8.98189 18.917 10.1893 18.8943C12.1952 18.8557 14.2011 18.8606 16.2071 18.8925C17.0234 18.9054 17.5636 19.3725 17.8772 20.1428C18.9612 22.8098 20.2901 25.3473 21.9554 27.7007C22.3992 28.3274 22.8522 28.9522 23.4973 29.3948C24.2093 29.8834 24.7519 29.7219 25.0877 28.9271C25.3025 28.4219 25.3952 27.8817 25.4418 27.3404C25.6014 25.486 25.6205 23.6323 25.3442 21.7854C25.1724 20.6296 24.5224 19.8832 23.3702 19.6647C22.7834 19.5536 22.8694 19.3363 23.1548 19.0011C23.6501 18.4217 24.1142 18.0632 25.0416 18.0632L31.9857 18.062C33.0801 18.2768 33.3256 18.7679 33.4742 19.8703L33.4803 27.5871C33.4674 28.0137 33.6945 29.2782 34.4606 29.5574C35.0744 29.76 35.4795 29.2677 35.8465 28.8792C37.5118 27.112 38.6983 25.0263 39.7608 22.8675C40.2298 21.9155 40.6343 20.9303 41.0271 19.9433C41.3193 19.2135 41.7735 18.8544 42.5972 18.8667L49.2841 18.8747C49.4811 18.8747 49.6812 18.8765 49.8764 18.9103C51.0034 19.103 51.3121 19.5879 50.9635 20.6873C50.4147 22.4145 49.3485 23.8533 48.3063 25.2958C47.1892 26.8401 45.9977 28.3304 44.8917 29.8815C43.8752 31.2994 43.9556 32.0133 45.2176 33.2446Z" fill="#7C7C7C" />
	</symbol>

	<symbol id="icon-3" width="60" height="60" viewBox="0 0 60 60" fill="none" xmlns="http://www.w3.org/2000/svg">
		<path d="M30 0C46.566 0 60 13.434 60 30C60 46.566 46.566 60 30 60C13.434 60 0 46.566 0 30C0 13.434 13.434 0 30 0ZM12.8773 37.1022C12.9607 38.936 13.2523 40.188 13.678 41.2839C14.5729 43.5979 16.4021 45.4271 18.7161 46.322C19.8116 46.7477 21.064 47.0389 22.8973 47.1227C24.7343 47.2064 25.3212 47.2266 29.9995 47.2266C34.6783 47.2266 35.2647 47.2064 37.1022 47.1227C38.9355 47.0389 40.188 46.7477 41.2834 46.322C42.4333 45.8894 43.4743 45.2115 44.3349 44.3349C45.211 43.4747 45.889 42.4333 46.3216 41.2839C46.7473 40.1884 47.0389 38.936 47.1222 37.1027C47.2069 35.2652 47.2266 34.6783 47.2266 30C47.2266 25.3217 47.2069 24.7348 47.1227 22.8978C47.0393 21.064 46.7482 19.812 46.3225 18.7161C45.8899 17.5667 45.2115 16.5253 44.3349 15.6651C43.4747 14.7885 42.4333 14.1106 41.2839 13.678C40.188 13.2523 38.936 12.9611 37.1022 12.8773C35.2652 12.7936 34.6783 12.7734 30 12.7734C25.3217 12.7734 24.7348 12.7936 22.8978 12.8778C21.064 12.9611 19.812 13.2523 18.7161 13.6775C17.5667 14.1101 16.5253 14.7885 15.6647 15.6651C14.7885 16.5257 14.1101 17.5667 13.678 18.7161C13.2518 19.812 12.9607 21.064 12.8769 22.8978C12.7931 24.7348 12.7734 25.3217 12.7734 30C12.7734 34.6783 12.7931 35.2652 12.8773 37.1022Z" fill="#7C7C7C" />
		<svg x="15" y="15" width="30" height="30" viewBox="0 0 30 30" fill="none" xmlns="http://www.w3.org/2000/svg">
			<path d="M1.57104 4.8403C1.84708 4.09232 2.28745 3.41528 2.85965 2.85956C3.41537 2.28735 4.09195 1.84699 4.84039 1.57095C5.44739 1.33521 6.35925 1.0546 8.03879 0.978149C9.85565 0.895294 10.4004 0.877441 15 0.877441C19.6001 0.877441 20.1448 0.894836 21.9612 0.977692C23.6407 1.0546 24.5531 1.33521 25.1596 1.57095C25.9081 1.84699 26.5851 2.28735 27.1404 2.85956C27.7126 3.41528 28.1529 4.09186 28.4294 4.8403C28.6652 5.4473 28.9458 6.35962 29.0222 8.03916C29.1051 9.85556 29.1229 10.4003 29.1229 15.0004C29.1229 19.6 29.1051 20.1447 29.0222 21.9616C28.9458 23.6411 28.6652 24.553 28.4294 25.16C28.1529 25.9084 27.713 26.585 27.1408 27.1407C26.5851 27.7129 25.9085 28.1533 25.1601 28.4293C24.5531 28.6655 23.6407 28.9461 21.9612 29.0226C20.1448 29.1054 19.6005 29.1228 15.0005 29.1228C10.3999 29.1228 9.85519 29.1054 8.03925 29.0226C6.35971 28.9461 5.44739 28.6655 4.84039 28.4293C3.33801 27.8498 2.15057 26.6624 1.57104 25.16C1.3353 24.553 1.05469 23.6411 0.977783 21.9616C0.894928 20.1447 0.877533 19.6 0.877533 15.0004C0.877533 10.4003 0.894928 9.85556 0.977783 8.03916C1.05423 6.35962 1.33484 5.4473 1.57104 4.8403ZM15 23.8457C19.8857 23.8457 23.8463 19.8856 23.8463 14.9999C23.8463 10.1142 19.8857 6.15408 15 6.15408C10.1147 6.15408 6.15417 10.1142 6.15417 14.9999C6.15417 19.8856 10.1147 23.8457 15 23.8457ZM5.80444 7.87161C6.94611 7.87161 7.8717 6.94602 7.8717 5.80435C7.8717 4.66269 6.94611 3.73709 5.80444 3.73709C4.66278 3.73709 3.73718 4.66269 3.73718 5.80435C3.73764 6.94602 4.66278 7.87161 5.80444 7.87161Z" fill="#7C7C7C" />
		</svg>
	</symbol>

	<symbol id="icon-4" width="16" height="16" viewBox="0 0 16 16" fill="none" xmlns="http://www.w3.org/2000/svg">
		<path fill-rule="evenodd" clip-rule="evenodd" d="M8 16C12.4183 16 16 12.4183 16 8C16 3.58172 12.4183 0 8 0C3.58172 0 0 3.58172 0 8C0 12.4183 3.58172 16 8 16Z" fill="#FF9900" />
		<svg x="7" y="4" width="2" height="10" viewBox="0 0 2 10" fill="none" xmlns="http://www.w3.org/2000/svg">
			<path d="M0.261539 3.4551H1.73846V10H0.261539V3.4551ZM1 1.90259C0.712821 1.90259 0.471795 1.81126 0.276924 1.62861C0.0923081 1.44597 0 1.22273 0 0.958904C0 0.695079 0.0923081 0.471841 0.276924 0.289193C0.471795 0.0963976 0.712821 0 1 0C1.28718 0 1.52308 0.0913239 1.70769 0.273972C1.90256 0.446473 2 0.664636 2 0.928462C2 1.20243 1.90256 1.43582 1.70769 1.62861C1.52308 1.81126 1.28718 1.90259 1 1.90259Z" fill="white" />
		</svg>
	</symbol>

</svg>
