<svg width="60" height="60" viewBox="0 0 60 60" fill="none" xmlns="http://www.w3.org/2000/svg">
	<path d="M30 0C46.566 0 60 13.434 60 30C60 46.566 46.566 60 30 60C13.434 60 0 46.566 0 30C0 13.434 13.434 0 30 0ZM12.8773 37.1022C12.9607 38.936 13.2523 40.188 13.678 41.2839C14.5729 43.5979 16.4021 45.4271 18.7161 46.322C19.8116 46.7477 21.064 47.0389 22.8973 47.1227C24.7343 47.2064 25.3212 47.2266 29.9995 47.2266C34.6783 47.2266 35.2647 47.2064 37.1022 47.1227C38.9355 47.0389 40.188 46.7477 41.2834 46.322C42.4333 45.8894 43.4743 45.2115 44.3349 44.3349C45.211 43.4747 45.889 42.4333 46.3216 41.2839C46.7473 40.1884 47.0389 38.936 47.1222 37.1027C47.2069 35.2652 47.2266 34.6783 47.2266 30C47.2266 25.3217 47.2069 24.7348 47.1227 22.8978C47.0393 21.064 46.7482 19.812 46.3225 18.7161C45.8899 17.5667 45.2115 16.5253 44.3349 15.6651C43.4747 14.7885 42.4333 14.1106 41.2839 13.678C40.188 13.2523 38.936 12.9611 37.1022 12.8773C35.2652 12.7936 34.6783 12.7734 30 12.7734C25.3217 12.7734 24.7348 12.7936 22.8978 12.8778C21.064 12.9611 19.812 13.2523 18.7161 13.6775C17.5667 14.1101 16.5253 14.7885 15.6647 15.6651C14.7885 16.5257 14.1101 17.5667 13.678 18.7161C13.2518 19.812 12.9607 21.064 12.8769 22.8978C12.7931 24.7348 12.7734 25.3217 12.7734 30C12.7734 34.6783 12.7931 35.2652 12.8773 37.1022Z" fill="#7C7C7C" />
	<svg x="15" y="15" width="30" height="30" viewBox="0 0 30 30" fill="none" xmlns="http://www.w3.org/2000/svg">
		<path d="M1.57104 4.8403C1.84708 4.09232 2.28745 3.41528 2.85965 2.85956C3.41537 2.28735 4.09195 1.84699 4.84039 1.57095C5.44739 1.33521 6.35925 1.0546 8.03879 0.978149C9.85565 0.895294 10.4004 0.877441 15 0.877441C19.6001 0.877441 20.1448 0.894836 21.9612 0.977692C23.6407 1.0546 24.5531 1.33521 25.1596 1.57095C25.9081 1.84699 26.5851 2.28735 27.1404 2.85956C27.7126 3.41528 28.1529 4.09186 28.4294 4.8403C28.6652 5.4473 28.9458 6.35962 29.0222 8.03916C29.1051 9.85556 29.1229 10.4003 29.1229 15.0004C29.1229 19.6 29.1051 20.1447 29.0222 21.9616C28.9458 23.6411 28.6652 24.553 28.4294 25.16C28.1529 25.9084 27.713 26.585 27.1408 27.1407C26.5851 27.7129 25.9085 28.1533 25.1601 28.4293C24.5531 28.6655 23.6407 28.9461 21.9612 29.0226C20.1448 29.1054 19.6005 29.1228 15.0005 29.1228C10.3999 29.1228 9.85519 29.1054 8.03925 29.0226C6.35971 28.9461 5.44739 28.6655 4.84039 28.4293C3.33801 27.8498 2.15057 26.6624 1.57104 25.16C1.3353 24.553 1.05469 23.6411 0.977783 21.9616C0.894928 20.1447 0.877533 19.6 0.877533 15.0004C0.877533 10.4003 0.894928 9.85556 0.977783 8.03916C1.05423 6.35962 1.33484 5.4473 1.57104 4.8403ZM15 23.8457C19.8857 23.8457 23.8463 19.8856 23.8463 14.9999C23.8463 10.1142 19.8857 6.15408 15 6.15408C10.1147 6.15408 6.15417 10.1142 6.15417 14.9999C6.15417 19.8856 10.1147 23.8457 15 23.8457ZM5.80444 7.87161C6.94611 7.87161 7.8717 6.94602 7.8717 5.80435C7.8717 4.66269 6.94611 3.73709 5.80444 3.73709C4.66278 3.73709 3.73718 4.66269 3.73718 5.80435C3.73764 6.94602 4.66278 7.87161 5.80444 7.87161Z" fill="#7C7C7C" />
	</svg>
</svg>
